<svg width="130" height="178" viewBox="0 0 130 178" fill="none" xmlns="http://www.w3.org/2000/svg">
<path d="M24.3468 154.28C25.4448 154.514 26.3268 155.063 26.9928 155.927C27.6588 156.773 27.9918 157.745 27.9918 158.843C27.9918 160.427 27.4338 161.687 26.3178 162.623C25.2198 163.541 23.6808 164 21.7008 164H12.8718V145.046H21.4038C23.3298 145.046 24.8328 145.487 25.9128 146.369C27.0108 147.251 27.5598 148.448 27.5598 149.96C27.5598 151.076 27.2628 152.003 26.6688 152.741C26.0928 153.479 25.3188 153.992 24.3468 154.28ZM17.4888 152.714H20.5128C21.2688 152.714 21.8448 152.552 22.2408 152.228C22.6548 151.886 22.8618 151.391 22.8618 150.743C22.8618 150.095 22.6548 149.6 22.2408 149.258C21.8448 148.916 21.2688 148.745 20.5128 148.745H17.4888V152.714ZM20.8908 160.274C21.6648 160.274 22.2588 160.103 22.6728 159.761C23.1048 159.401 23.3208 158.888 23.3208 158.222C23.3208 157.556 23.0958 157.034 22.6458 156.656C22.2138 156.278 21.6108 156.089 20.8368 156.089H17.4888V160.274H20.8908ZM45.5466 148.934V164H40.9296V161.948C40.4616 162.614 39.8226 163.154 39.0126 163.568C38.2206 163.964 37.3386 164.162 36.3666 164.162C35.2146 164.162 34.1976 163.91 33.3156 163.406C32.4336 162.884 31.7496 162.137 31.2636 161.165C30.7776 160.193 30.5346 159.05 30.5346 157.736V148.934H35.1246V157.115C35.1246 158.123 35.3856 158.906 35.9076 159.464C36.4296 160.022 37.1316 160.301 38.0136 160.301C38.9136 160.301 39.6246 160.022 40.1466 159.464C40.6686 158.906 40.9296 158.123 40.9296 157.115V148.934H45.5466ZM51.185 147.368C50.375 147.368 49.709 147.134 49.187 146.666C48.683 146.18 48.431 145.586 48.431 144.884C48.431 144.164 48.683 143.57 49.187 143.102C49.709 142.616 50.375 142.373 51.185 142.373C51.977 142.373 52.625 142.616 53.129 143.102C53.651 143.57 53.912 144.164 53.912 144.884C53.912 145.586 53.651 146.18 53.129 146.666C52.625 147.134 51.977 147.368 51.185 147.368ZM53.48 148.934V164H48.863V148.934H53.48ZM61.4429 144.02V164H56.8259V144.02H61.4429ZM63.8707 156.44C63.8707 154.892 64.1587 153.533 64.7347 152.363C65.3287 151.193 66.1297 150.293 67.1377 149.663C68.1457 149.033 69.2707 148.718 70.5127 148.718C71.5027 148.718 72.4027 148.925 73.2127 149.339C74.0407 149.753 74.6887 150.311 75.1567 151.013V144.02H79.7737V164H75.1567V161.84C74.7247 162.56 74.1037 163.136 73.2937 163.568C72.5017 164 71.5747 164.216 70.5127 164.216C69.2707 164.216 68.1457 163.901 67.1377 163.271C66.1297 162.623 65.3287 161.714 64.7347 160.544C64.1587 159.356 63.8707 157.988 63.8707 156.44ZM75.1567 156.467C75.1567 155.315 74.8327 154.406 74.1847 153.74C73.5547 153.074 72.7807 152.741 71.8627 152.741C70.9447 152.741 70.1617 153.074 69.5137 153.74C68.8837 154.388 68.5687 155.288 68.5687 156.44C68.5687 157.592 68.8837 158.51 69.5137 159.194C70.1617 159.86 70.9447 160.193 71.8627 160.193C72.7807 160.193 73.5547 159.86 74.1847 159.194C74.8327 158.528 75.1567 157.619 75.1567 156.467ZM87.6499 145.046V156.386C87.6499 157.52 87.9289 158.393 88.4869 159.005C89.0449 159.617 89.8639 159.923 90.9439 159.923C92.0239 159.923 92.8519 159.617 93.4279 159.005C94.0039 158.393 94.2919 157.52 94.2919 156.386V145.046H98.9089V156.359C98.9089 158.051 98.5489 159.482 97.8289 160.652C97.1089 161.822 96.1369 162.704 94.9129 163.298C93.7069 163.892 92.3569 164.189 90.8629 164.189C89.3689 164.189 88.0279 163.901 86.8399 163.325C85.6699 162.731 84.7429 161.849 84.0589 160.679C83.3749 159.491 83.0329 158.051 83.0329 156.359V145.046H87.6499ZM106.768 151.067C107.218 150.365 107.839 149.798 108.631 149.366C109.423 148.934 110.35 148.718 111.412 148.718C112.654 148.718 113.779 149.033 114.787 149.663C115.795 150.293 116.587 151.193 117.163 152.363C117.757 153.533 118.054 154.892 118.054 156.44C118.054 157.988 117.757 159.356 117.163 160.544C116.587 161.714 115.795 162.623 114.787 163.271C113.779 163.901 112.654 164.216 111.412 164.216C110.368 164.216 109.441 164 108.631 163.568C107.839 163.136 107.218 162.578 106.768 161.894V171.182H102.151V148.934H106.768V151.067ZM113.356 156.44C113.356 155.288 113.032 154.388 112.384 153.74C111.754 153.074 110.971 152.741 110.035 152.741C109.117 152.741 108.334 153.074 107.686 153.74C107.056 154.406 106.741 155.315 106.741 156.467C106.741 157.619 107.056 158.528 107.686 159.194C108.334 159.86 109.117 160.193 110.035 160.193C110.953 160.193 111.736 159.86 112.384 159.194C113.032 158.51 113.356 157.592 113.356 156.44Z" fill="#14235A"/>
<path d="M29.5344 1V117.538H42.0302V49.125L53.0113 57.1458V117.538H55.6619V28.837L67.4004 38.7451V82.6237L61.3418 88.2855V117.538H64.3711V91.1164L72.7016 83.5674V117.538H75.7309V75.0747L70.4296 79.7928V55.448L81.7894 63.7512V117.538C81.7894 117.538 93.4207 115.648 98.8291 109.989C104.604 103.946 107.005 98.0853 107.917 88.7573C108.72 80.543 108.26 74.8262 104.509 67.9975C101.218 62.0055 90.1199 57.1458 90.1199 57.1458C90.1199 57.1458 97.5033 52.463 100.344 46.7659C103.129 41.1795 103.977 36.5486 103.752 30.2524C103.439 21.5251 102.172 15.3023 96.9358 9.49264C91.7265 3.71276 81.7894 1 81.7894 1H29.5344Z" fill="#14235A" stroke="#14235A"/>
</svg>
